HIERARCHY
ROOT Hips
{
  OFFSET -125.086 92.215 135.881
  CHANNELS 6 Xposition Yposition Zposition Zrotation Xrotation Yrotation
  JOINT LeftUpLeg
  {
    OFFSET 8.64259 1.95398 -2.38835
    CHANNELS 3 Zrotation Xrotation Yrotation
    JOINT LeftLeg
    {
      OFFSET 43.7702 0 0
      CHANNELS 3 Zrotation Xrotation Yrotation
      JOINT LeftFoot
      {
        OFFSET 40.6238 0 0
        CHANNELS 3 Zrotation Xrotation Yrotation
        JOINT LeftToeBase
        {
          OFFSET 12.7242 0 0
          CHANNELS 3 Zrotation Xrotation Yrotation
          End Site
          {
            OFFSET 0 0 0
          }
        }
      }
    }
  }
  JOINT RightUpLeg
  {
    OFFSET -8.2249 1.95398 -2.59336
    CHANNELS 3 Zrotation Xrotation Yrotation
    JOINT RightLeg
    {
      OFFSET 43.5653 0 0
      CHANNELS 3 Zrotation Xrotation Yrotation
      JOINT RightFoot
      {
        OFFSET 40.6238 0 0
        CHANNELS 3 Zrotation Xrotation Yrotation
        JOINT RightToeBase
        {
          OFFSET 12.7242 0 0
          CHANNELS 3 Zrotation Xrotation Yrotation
          End Site
          {
            OFFSET 0 0 0
          }
        }
      }
    }
  }
  JOINT Spine
  {
    OFFSET 0.165834 0.87714 6.61349
    CHANNELS 3 Zrotation Xrotation Yrotation
    JOINT Spine1
    {
      OFFSET 7.38963 1.71661e-005 0
      CHANNELS 3 Zrotation Xrotation Yrotation
      JOINT Spine2
      {
        OFFSET 11.9445 1.14441e-005 0
        CHANNELS 3 Zrotation Xrotation Yrotation
        JOINT Spine3
        {
          OFFSET 14.7254 4.19617e-005 0
          CHANNELS 3 Zrotation Xrotation Yrotation
          JOINT Spine4
          {
            OFFSET 10.9679 0 0
            CHANNELS 3 Zrotation Xrotation Yrotation
            JOINT RightShoulder
            {
              OFFSET 2.46616 -1.6653 3.69651
              CHANNELS 3 Zrotation Xrotation Yrotation
              JOINT RightArm
              {
                OFFSET 13.0012 0 0
                CHANNELS 3 Zrotation Xrotation Yrotation
                JOINT RightForeArm
                {
                  OFFSET 28.7848 1.52588e-005 0
                  CHANNELS 3 Zrotation Xrotation Yrotation
                  JOINT RightHand
                  {
                    OFFSET 26.5688 1.52588e-005 0
                    CHANNELS 3 Zrotation Xrotation Yrotation
                    End Site
                    {
                      OFFSET 0 0 0
                    }
                  }
                }
              }
            }
            JOINT LeftShoulder
            {
              OFFSET 2.38034 -1.29275 -3.7523
              CHANNELS 3 Zrotation Xrotation Yrotation
              JOINT LeftArm
              {
                OFFSET 16.3182 6.10352e-005 0
                CHANNELS 3 Zrotation Xrotation Yrotation
                JOINT LeftForeArm
                {
                  OFFSET 27.0901 0 0
                  CHANNELS 3 Zrotation Xrotation Yrotation
                  JOINT LeftHand
                  {
                    OFFSET 24.5451 1.52588e-005 0
                    CHANNELS 3 Zrotation Xrotation Yrotation
                    End Site
                    {
                      OFFSET 0 0 0
                    }
                  }
                }
              }
            }
            JOINT Neck
            {
              OFFSET 5.0226 -0.0266342 0
              CHANNELS 3 Zrotation Xrotation Yrotation
              JOINT Head
              {
                OFFSET 6.69363 2.86102e-005 0
                CHANNELS 3 Zrotation Xrotation Yrotation
                End Site
                {
                  OFFSET 0 0 0
                }
              }
            }
          }
        }
      }
    }
  }
}
MOTION
Frames:	18
Frame Time:	0.0416667
-127.258 96.9298 -22.8376 98.4266 -85.0873 87.9699 -174.484 10.7714 97.2533 -10.2001 20.2845 5.87296 42.7585 -4.5756 -7.41772 45.9777 -1.0501 11.778 171.121 13.6574 71.6964 -26.1132 -4.49982 -3.70189 58.4808 1.41507 15.6762 48.604 -3.30281 -2.77122 -0.0543866 7.54669 -90.5306 11.7778 -0.357407 -1.01985 0.106487 -0.40195 -1.00314 -22.4255 -0.0344023 -1.08011 -2.41281 -0.0343958 -1.08011 109.015 -49.9292 -71.4847 21.9134 2.68092 -11.5488 0.218029 -23.4383 -14.1781 -15.2238 -0.948705 2.0897 -74.7934 -48.675 101.581 -43.1163 -11.0277 -22.4684 7.48691 54.3683 0.0189744 -5.59167 0.132616 -12.2981 10.5083 2.6443 4.92376 -22.8675 1.16625 1.7273 
-124.764 96.3563 -22.5394 96.5848 -84.831 85.6932 -174.304 11.1349 98.8854 -10.7453 20.2978 6.46324 40.9058 -5.13164 -8.23709 43.7546 -1.08053 12.4314 170.859 14.9398 69.7564 -27.737 -4.69812 -4.18674 58.1318 1.40168 16.2223 51.2649 -3.74159 -2.35766 -0.0644358 7.5577 -90.4727 11.7562 -0.350117 -0.905383 0.084962 -0.389628 -0.889105 -22.4477 -0.0618417 -0.968746 -2.43504 -0.0618444 -0.968755 108.987 -49.9504 -71.5309 21.2326 3.14353 -11.7153 0.34897 -23.3665 -13.4968 -14.4972 -0.875656 1.87055 -74.7333 -48.9559 101.658 -42.512 -11.4116 -22.6757 7.6141 53.6054 0.0189807 -5.78835 0.153076 -12.5353 10.4683 1.85636 -0.407432 -21.5253 0.486481 9.08219 
-122.011 95.4904 -22.1638 95.3086 -85.4227 84.7197 -173.894 12.3174 101.046 -13.6628 21.1473 7.25928 41.2101 -5.17088 -8.53496 42.2511 -1.11018 12.2938 170.635 16.5874 68.1265 -29.787 -5.6822 -4.29189 57.789 1.23524 16.8905 53.8204 -4.16139 -2.0749 -0.0126361 7.56559 -90.4644 11.7409 -0.24317 -0.900223 0.0696241 -0.282552 -0.888656 -22.463 0.0386076 -0.931686 -2.45038 0.038614 -0.93169 108.57 -49.431 -72.1144 20.7592 2.7116 -11.5176 0.834033 -22.8626 -13.3227 -14.8269 -0.927902 2.12975 -74.8664 -48.7052 101.467 -42.1656 -11.66 -22.2661 7.62112 52.5917 0.0185569 -4.73002 0.0633901 -11.7033 11.4233 2.25162 1.49831 -22.1706 0.775767 6.60832 
-118.978 94.2484 -21.7549 98.9921 -85.7928 89.2664 -173.439 13.1235 103.428 -15.9395 21.5605 8.25901 41.7607 -5.13117 -8.11801 41.8328 -1.12614 11.3321 170.15 18.0093 66.6574 -32.2225 -7.46653 -4.08076 57.5981 0.860644 16.6614 57.5227 -4.86085 -2.35106 -0.0400554 7.6677 -90.4459 11.5366 -0.288332 -0.858832 -0.134599 -0.32585 -0.845305 -22.6675 -0.0168991 -0.905779 -2.65484 -0.0168998 -0.905773 108.95 -49.7686 -71.5646 20.6081 3.51546 -13.5607 1.1265 -23.8346 -11.5253 -14.1101 -0.781227 1.26831 -74.6582 -48.5318 101.797 -41.3825 -11.8782 -22.4655 7.54935 52.0101 0.0180632 -4.37731 0.0356563 -11.5706 12.8902 1.98038 -1.36158 -22.7815 0.656728 9.68916 
-115.644 92.5496 -21.3609 94.1363 -85.5207 85.8074 -173.3 14.7113 105.993 -17.5386 21.3025 8.99657 40.4015 -5.67907 -8.174 43.4845 -1.08849 12.2835 170.148 20.2336 65.376 -35.6683 -7.73905 -4.03286 56.9111 1.1239 18.1001 61.4135 -5.63327 -2.70087 -0.082285 7.6231 -90.4522 11.6254 -0.375541 -0.862164 -0.0457241 -0.413115 -0.844808 -22.5786 -0.0990775 -0.935163 -2.56599 -0.0990774 -0.935171 109.112 -49.7337 -71.3075 20.2423 2.7104 -12.8404 0.681415 -23.1053 -13.6774 -14.2145 -0.808058 1.45141 -74.6528 -48.4097 101.813 -40.2725 -12.3836 -22.2227 7.1801 53.2151 0.0180834 -4.96466 0.0784076 -11.826 13.0169 2.4413 -0.231496 -23.0045 1.2388 7.12288 
-111.879 90.5263 -21.0739 102.086 -84.1717 94.9929 -174.677 15.4267 107.841 -20.7042 22.2753 10.2276 40.5354 -5.21394 -7.55774 45.8444 -0.962178 14.512 169.639 20.9185 63.5741 -38.7457 -9.79742 -4.15076 56.0286 1.26647 16.9742 66.64 -6.65316 -2.88149 -0.194417 7.78137 -90.3905 11.3089 -0.568771 -0.72125 -0.362064 -0.59996 -0.695532 -22.896 -0.325723 -0.858842 -2.88339 -0.325722 -0.858844 109.552 -50.295 -70.702 19.7435 2.08772 -12.5315 0.671275 -20.4613 -15.4498 -14.8442 -0.707959 0.35557 -74.8797 -47.9642 101.486 -39.3582 -12.2544 -22.9944 6.60211 53.8092 0.0633997 -5.53757 0.114915 -11.7992 12.7297 1.44735 -3.97523 -21.3662 0.676442 11.1507 
-107.511 88.2828 -20.7603 102.915 -82.3265 98.5567 -177.068 16.5575 110.303 -25.104 23.9631 11.683 41.4562 -3.77906 -10.7463 58.7252 0.330286 18.7424 169.589 19.7967 63.1367 -39.7623 -9.73933 -4.53083 55.4572 1.73124 17.8079 69.91 -7.76953 -4.61011 -0.286119 7.81813 -90.3996 11.235 -0.755328 -0.720893 -0.43592 -0.786313 -0.686954 -22.9704 -0.503761 -0.914565 -2.95776 -0.503755 -0.914557 110.821 -51.4691 -68.9363 18.8396 1.76754 -11.9212 1.00985 -18.7389 -16.2152 -15.2132 -0.743053 0.495761 -75.9293 -46.092 99.9108 -39.4439 -12.0161 -22.6135 7.21956 54.7443 -1.28006 -4.71058 0.0645243 -11.9224 12.436 0.80766 -6.02892 -21.3178 0.561183 11.1015 
-102.298 86.4163 -20.3283 99.8159 -79.9204 98.0331 179.948 18.4488 110.509 -31.6489 19.8369 13.1489 49.4458 -0.118155 -11.8868 67.4754 1.18919 19.9846 169.435 16.6725 62.4156 -36.8542 -10.1926 -5.44619 52.2477 3.14754 20.453 73.0619 -9.193 -7.07851 -0.474745 7.79547 -90.3761 11.2798 -1.11988 -0.637714 -0.390813 -1.14687 -0.587814 -22.9273 -0.876458 -0.944812 -2.91465 -0.876464 -0.944818 112.476 -52.8549 -66.6857 18.1419 2.7331 -10.2786 0.224216 -16.5393 -18.4443 -15.4344 -0.855838 1.27459 -76.7883 -44.3421 98.5824 -40.1373 -11.4317 -22.0013 9.80643 56.5647 -4.97741 -4.20482 0.0277104 -11.7957 11.717 -0.0869535 -8.71723 -21.2417 0.243884 11.5447 
-96.2312 85.7977 -20.1064 95.9793 -77.1342 95.7469 179.365 22.0368 108.232 -39.4538 19.5003 12.5058 58.9136 4.52467 -1.60635 66.4728 0.135513 15.4906 166.894 12.5465 60.1132 -28.1166 -8.38422 -5.08289 44.3904 5.0643 26.6063 72.2845 -9.45198 -8.54401 -0.647921 7.82206 -90.3005 11.2273 -1.42925 -0.45735 -0.442954 -1.44798 -0.393997 -22.9824 -1.22571 -0.865796 -2.96975 -1.22571 -0.865799 114.641 -54.2221 -63.7674 18.2969 5.63788 -8.72361 -1.71226 -15.7527 -20.5457 -15.2107 -0.826711 1.14658 -78.3405 -43.0446 96.0367 -41.4565 -9.7454 -23.0233 7.91268 55.8637 -3.20729 -2.56042 -0.0793775 -11.1639 11.3735 -1.44929 -11.8288 -20.7848 -0.510238 12.7844 
-90.3796 87.0863 -20.0819 90.5151 -74.9099 92.2296 179.168 25.2502 107.07 -44.4143 23.0075 11.6525 62.2755 6.604 1.24019 63.9025 -0.268816 14.0873 165.632 7.97829 60.1373 -17.9499 -5.70849 -5.40657 36.6065 6.68906 29.4181 56.8501 -6.35904 -12.125 -0.678224 7.81911 -90.3684 11.232 -1.52122 -0.583577 -0.438171 -1.54543 -0.516054 -22.9776 -1.2755 -1.01383 -2.96496 -1.2755 -1.01383 115.012 -54.3113 -63.2444 19.991 8.46533 -7.07623 -3.36737 -16.0561 -20.525 -14.9842 -0.830346 1.27659 -78.4652 -43.5425 95.8375 -42.1198 -7.94755 -26.4499 4.79054 59.315 0.341377 -2.04213 -0.11372 -12.6148 10.5322 -1.87161 -10.2372 -19.6512 -0.908521 10.317 
-85.8596 89.1212 -20.3992 86.3455 -75.6236 89.4244 -179.57 26.1568 105.765 -44.5111 23.6186 9.99605 61.5067 6.40603 2.71201 61.8248 -0.750239 11.8449 168.199 9.55049 62.9349 -20.7052 -6.43882 -6.09722 42.5386 6.15087 25.937 46.0394 -3.18515 -9.30843 -0.370686 7.83993 -90.2796 11.1927 -0.867674 -0.470725 -0.47802 -0.887554 -0.432085 -23.014 -0.6861 -0.709739 -3.00135 -0.686099 -0.709743 114.397 -54.2191 -64.1233 22.2611 9.44751 -6.69517 -3.54193 -19.5949 -16.4472 -13.718 -0.757502 1.25542 -78.3639 -43.5906 96.0046 -40.8822 -6.21656 -28.6303 4.55359 60.0654 -1.31332 -2.81301 -0.0623172 -12.1883 8.77482 -1.87863 -7.81249 -17.9021 -0.957724 6.41218 
-82.1252 91.123 -20.7544 84.9297 -76.6082 89.4179 -179.551 24.3519 104.326 -42.2696 23.3037 9.87307 60.0929 5.73912 4.81235 60.89 -0.873422 11.2241 169.065 11.4218 67.0543 -24.6922 -2.64984 -4.15087 50.2697 4.28524 26.6623 47.043 -3.35554 -7.71709 -0.171974 7.95322 -90.2076 10.9665 -0.438449 -0.371467 -0.704388 -0.454374 -0.351814 -23.2394 -0.306545 -0.486064 -3.22681 -0.306543 -0.486071 113.892 -54.1324 -64.8433 23.6332 8.85773 -8.8782 -2.12529 -24.8076 -11.0187 -12.1227 -0.625089 0.836063 -78.4047 -43.6287 95.9385 -38.5909 -5.44786 -28.3899 7.54055 56.3342 -7.1202 -3.6185 -0.00450812 -12.3005 8.10439 -1.57921 -5.40304 -17.707 -0.792392 3.07621 
-79.0798 92.8037 -21.127 84.8274 -76.5415 90.4406 -178.926 22.047 102.887 -38.2087 22.3216 9.51401 60.4412 5.91481 6.3409 56.966 -1.14976 9.50088 169.708 12.8684 72.3296 -30.3586 0.735088 -2.02352 54.3267 3.03648 24.3278 50.6103 -3.80288 -4.16566 -0.17612 8.02302 -90.1902 10.8271 -0.43846 -0.337434 -0.843813 -0.452884 -0.317821 -23.379 -0.31679 -0.453621 -3.36632 -0.31678 -0.453613 113.375 -53.7561 -65.5273 24.6974 7.9611 -9.96153 -1.22548 -25.2461 -9.57271 -11.7945 -0.594081 0.696575 -78.8707 -43.0478 95.1594 -37.6313 -5.11097 -26.8653 8.08699 49.3898 -9.33519 1.48872 -0.355809 -12.2276 6.90975 -1.5028 -4.80786 -17.3606 -0.885889 3.06222 
-76.1773 93.7006 -21.5416 85.4471 -76.5917 91.1971 -178.392 19.3517 100.846 -34.4087 22.6266 9.36622 61.2915 6.29891 8.76442 54.0461 -1.32136 7.80803 168.443 15.5752 76.6695 -37.7074 3.87825 0.920847 56.5618 2.06148 23.1855 54.2421 -4.34747 -2.91446 -0.282104 8.05057 -90.1363 10.7723 -0.624529 -0.213232 -0.89853 -0.633311 -0.185551 -23.4345 -0.531577 -0.391075 -3.42185 -0.531576 -0.391081 113.035 -53.3297 -65.9453 25.2414 7.04974 -10.0228 -1.69151 -24.124 -11.7351 -11.9626 -0.565994 0.327868 -78.7693 -42.6792 95.3192 -37.1285 -5.25877 -25.2492 8.21948 45.4413 -10.459 2.93334 -0.449807 -12.1112 5.36581 -1.68293 -6.8329 -15.4948 -1.07588 6.65783 
-73.5637 94.3515 -21.9935 86.9299 -77.3624 91.6534 -177.558 17.6406 98.4934 -32.4919 22.7394 8.55821 61.6709 5.91816 9.18097 51.2698 -1.42423 6.07642 167.464 18.5962 80.6896 -44.9768 5.25047 2.65398 58.9911 1.0371 22.9786 53.7734 -3.9414 -0.37302 -0.348451 8.10951 -89.9919 10.6555 -0.690183 0.07929 -1.01523 -0.686022 0.10959 -23.5519 -0.682106 -0.131805 -3.53921 -0.682107 -0.131819 112.742 -53.5011 -66.4123 25.3635 5.84788 -9.78259 -2.34093 -21.7022 -15.5448 -12.8215 -0.634474 0.580292 -78.6725 -42.7651 95.482 -36.4915 -5.77055 -24.9629 7.54178 45.0971 -9.39895 1.87089 -0.376997 -12.0823 6.2036 -1.19265 -5.82698 -15.9535 -0.709961 6.16549 
-71.2491 94.892 -22.3378 89.6023 -77.8037 93.6758 -177.038 15.9736 96.7045 -30.8075 22.6842 7.83126 61.8824 5.64854 9.31252 48.5563 -1.3756 5.31087 167.021 20.044 85.3736 -48.9301 4.72625 3.97727 60.5477 0.746383 24.0915 54.2816 -3.75611 1.64281 -0.407616 8.16272 -89.9518 10.5491 -0.789715 0.166553 -1.12157 -0.781617 0.201146 -23.6587 -0.803258 -0.0785035 -3.64601 -0.803255 -0.0785054 111.899 -53.0434 -67.5808 26.3323 4.59106 -9.41533 -3.16173 -21.0268 -18.9735 -13.0667 -0.708464 1.15211 -78.6758 -43.0894 95.4827 -37.497 -7.29614 -26.7372 4.62392 48.0387 -2.00408 1.24515 -0.352322 -12.6756 6.95936 -0.57778 -4.68464 -16.6286 -0.275737 5.66749 
-68.9903 95.5969 -22.3675 93.206 -77.9493 97.3816 -176.44 13.7642 95.7481 -28.6072 23.0141 7.39519 61.8112 5.2738 9.26786 46.4216 -1.34382 4.04831 168.279 19.1549 90.3532 -47.9495 3.0122 4.70012 63.4925 0.369661 26.0101 53.9829 -3.55904 2.87946 -0.468231 8.17411 -89.9912 10.5264 -0.928627 0.100342 -1.14427 -0.923302 0.141109 -23.682 -0.915839 -0.183413 -3.66939 -0.915846 -0.183419 111.257 -52.8906 -68.5115 27.2733 3.49286 -9.4394 -4.2934 -22.984 -21.0735 -12.6378 -0.650296 0.821211 -78.5905 -43.312 95.6274 -38.9327 -9.34504 -27.6062 5.76888 52.0794 0.0141657 0.431435 -0.285601 -12.3279 5.04483 -0.660865 -7.04893 -14.3529 -0.272335 9.79628 
-67.1834 96.1294 -22.3851 93.4843 -79.0206 96.631 -175.613 11.8908 94.3928 -25.2275 22.6274 5.7247 61.5468 4.84957 8.65711 43.8816 -1.24106 2.64887 170.857 18.3866 93.4838 -43.4943 1.87189 4.38448 65.2005 0.343059 27.4223 58.5716 -3.83186 4.86204 -0.44359 8.04732 -89.8891 10.7805 -0.832056 0.298025 -0.890243 -0.818126 0.334347 -23.4275 -0.883157 0.0341602 -3.41486 -0.883156 0.0341574 111.031 -53.1198 -68.8871 27.9564 2.90232 -9.9931 -5.51268 -26.2621 -21.8287 -11.5258 -0.524591 0.118471 -78.4212 -43.5386 95.9101 -39.5712 -10.3502 -27.6364 7.13436 53.4298 0.0177323 1.11703 -0.286039 -10.7053 4.49628 -0.349601 -6.78345 -14.4926 -0.00806639 9.33832 
